<?xml version="1.0" encoding="iso-8859-1"?>
<!-- Generator: Adobe Illustrator 19.0.0, SVG Export Plug-In . SVG Version: 6.00 Build 0)  -->
<svg xmlns="http://www.w3.org/2000/svg" xmlns:xlink="http://www.w3.org/1999/xlink" version="1.1" id="Capa_1" x="0px" y="0px" viewBox="0 0 60 60" style="enable-background:new 0 0 60 60;" xml:space="preserve" width="512px" height="512px">
<g>
	<path d="M25,33c4.411,0,8-3.589,8-8s-3.589-8-8-8s-8,3.589-8,8S20.589,33,25,33z M25,20c2.757,0,5,2.243,5,5s-2.243,5-5,5   s-5-2.243-5-5S22.243,20,25,20z" fill="#FFFFFF"/>
	<path d="M25,44c5.576,0,10.775-2.405,14.399-6.63l-1.506-1.506l5.256-5.256C43.714,28.782,44,26.896,44,25c0-10.477-8.523-19-19-19   S6,14.523,6,25S14.523,44,25,44z M25,15c5.514,0,10,4.486,10,10s-4.486,10-10,10s-10-4.486-10-10S19.486,15,25,15z" fill="#FFFFFF"/>
	<path d="M60,48V4.503C60,2.02,57.98,0,55.497,0H4.503C2.02,0,0,2.02,0,4.503V48H60z M56,42h-3v4c0,0.552-0.447,1-1,1s-1-0.448-1-1   v-4h-3v-5h3v-2c0-0.552,0.447-1,1-1s1,0.448,1,1v2h3V42z M25,4c11.579,0,21,9.42,21,21c0,1.854-0.262,3.695-0.75,5.492l0.422,0.422   L51,25.586V11.858c-1.721-0.447-3-2-3-3.858c0-2.206,1.794-4,4-4s4,1.794,4,4c0,1.858-1.279,3.411-3,3.858v14.556l-5.914,5.914   l1.414,1.414l-6.364,6.364l-1.32-1.32C36.816,43.384,31.115,46,25,46C13.421,46,4,36.58,4,25S13.421,4,25,4z" fill="#FFFFFF"/>
	<path d="M0,50v5.497C0,57.98,2.02,60,4.503,60h50.994C57.98,60,60,57.98,60,55.497V50H0z M10,55c0,0.265-0.105,0.52-0.293,0.707   l-1,1C8.52,56.895,8.266,57,8,57H6c-0.266,0-0.52-0.105-0.707-0.293l-1-1C4.105,55.52,4,55.265,4,55v-2   c0-0.265,0.105-0.52,0.293-0.707l1-1C5.48,51.105,5.734,51,6,51h2c0.266,0,0.52,0.105,0.707,0.293l1,1C9.895,52.48,10,52.735,10,53   V55z M17,55c0,0.265-0.105,0.52-0.293,0.707l-1,1C15.52,56.895,15.266,57,15,57h-2c-0.266,0-0.52-0.105-0.707-0.293l-1-1   C11.105,55.52,11,55.265,11,55v-2c0-0.265,0.105-0.52,0.293-0.707l1-1C12.48,51.105,12.734,51,13,51h2   c0.266,0,0.52,0.105,0.707,0.293l1,1C16.895,52.48,17,52.735,17,53V55z M24,55c0,0.265-0.105,0.52-0.293,0.707l-1,1   C22.52,56.895,22.266,57,22,57h-2c-0.266,0-0.52-0.105-0.707-0.293l-1-1C18.105,55.52,18,55.265,18,55v-2   c0-0.265,0.105-0.52,0.293-0.707l1-1C19.48,51.105,19.734,51,20,51h2c0.266,0,0.52,0.105,0.707,0.293l1,1   C23.895,52.48,24,52.735,24,53V55z M31,55c0,0.265-0.105,0.52-0.293,0.707l-1,1C29.52,56.895,29.266,57,29,57h-2   c-0.266,0-0.52-0.105-0.707-0.293l-1-1C25.105,55.52,25,55.265,25,55v-2c0-0.265,0.105-0.52,0.293-0.707l1-1   C26.48,51.105,26.734,51,27,51h2c0.266,0,0.52,0.105,0.707,0.293l1,1C30.895,52.48,31,52.735,31,53V55z" fill="#FFFFFF"/>
</g>
<g>
</g>
<g>
</g>
<g>
</g>
<g>
</g>
<g>
</g>
<g>
</g>
<g>
</g>
<g>
</g>
<g>
</g>
<g>
</g>
<g>
</g>
<g>
</g>
<g>
</g>
<g>
</g>
<g>
</g>
</svg>
